<svg width="22" height="31" viewBox="0 0 22 31" fill="none" xmlns="http://www.w3.org/2000/svg">
<g clip-path="url(#clip0_84048_882)">
<path d="M3.75 15.2501L8 14.2501L17.2929 4.9572C17.6834 4.56667 17.6834 3.93351 17.2929 3.54298L15.4571 1.7072C15.0666 1.31667 14.4334 1.31667 14.0429 1.7072L4.75 11.0001L3.75 15.2501Z" stroke="#747488" stroke-width="1.5" stroke-linecap="round" stroke-linejoin="round"/>
<path d="M18.25 15.25H12.75" stroke="#747488" stroke-width="1.5" stroke-linecap="round" stroke-linejoin="round"/>
</g>
<path d="M1.104 28C0.96 28 0.848 27.9627 0.768 27.888C0.693333 27.808 0.656 27.696 0.656 27.552V22.808C0.656 22.664 0.693333 22.5547 0.768 22.48C0.848 22.4 0.96 22.36 1.104 22.36H4.024C4.136 22.36 4.22133 22.3893 4.28 22.448C4.33867 22.5013 4.368 22.5813 4.368 22.688C4.368 22.8 4.33867 22.8853 4.28 22.944C4.22133 23.0027 4.136 23.032 4.024 23.032H1.456V24.8H3.848C3.96533 24.8 4.05067 24.8293 4.104 24.888C4.16267 24.9467 4.192 25.0293 4.192 25.136C4.192 25.248 4.16267 25.3333 4.104 25.392C4.05067 25.4453 3.96533 25.472 3.848 25.472H1.456V27.328H4.024C4.136 27.328 4.22133 27.3573 4.28 27.416C4.33867 27.4747 4.368 27.5573 4.368 27.664C4.368 27.776 4.33867 27.8613 4.28 27.92C4.22133 27.9733 4.136 28 4.024 28H1.104ZM6.73569 28.072C6.39435 28.072 6.09302 27.992 5.83169 27.832C5.57569 27.6667 5.37569 27.432 5.23169 27.128C5.08769 26.8187 5.01569 26.4587 5.01569 26.048C5.01569 25.6267 5.08769 25.2667 5.23169 24.968C5.37569 24.6693 5.57569 24.4373 5.83169 24.272C6.09302 24.1067 6.39435 24.024 6.73569 24.024C7.07702 24.024 7.37035 24.1093 7.61569 24.28C7.86635 24.4453 8.03435 24.6693 8.11969 24.952H8.03169V22.712C8.03169 22.5787 8.06635 22.4773 8.13569 22.408C8.20502 22.3387 8.30369 22.304 8.43169 22.304C8.55969 22.304 8.65835 22.3387 8.72769 22.408C8.80235 22.4773 8.83969 22.5787 8.83969 22.712V27.648C8.83969 27.776 8.80502 27.8773 8.73569 27.952C8.66635 28.0213 8.56769 28.056 8.43969 28.056C8.31169 28.056 8.21302 28.0213 8.14369 27.952C8.07435 27.8773 8.03969 27.776 8.03969 27.648V26.944L8.12769 27.12C8.04235 27.408 7.87435 27.64 7.62369 27.816C7.37835 27.9867 7.08235 28.072 6.73569 28.072ZM6.94369 27.448C7.16235 27.448 7.35435 27.3947 7.51969 27.288C7.68502 27.1813 7.81302 27.024 7.90369 26.816C7.99969 26.608 8.04769 26.352 8.04769 26.048C8.04769 25.5893 7.94635 25.2427 7.74369 25.008C7.54102 24.7733 7.27435 24.656 6.94369 24.656C6.71969 24.656 6.52502 24.7093 6.35969 24.816C6.19435 24.9173 6.06369 25.072 5.96769 25.28C5.87702 25.488 5.83169 25.744 5.83169 26.048C5.83169 26.5013 5.93302 26.848 6.13569 27.088C6.33835 27.328 6.60769 27.448 6.94369 27.448ZM10.3743 28.048C10.2463 28.048 10.1476 28.0107 10.0783 27.936C10.0089 27.856 9.97425 27.7467 9.97425 27.608V24.488C9.97425 24.3493 10.0089 24.2427 10.0783 24.168C10.1476 24.0933 10.2463 24.056 10.3743 24.056C10.5023 24.056 10.6009 24.0933 10.6703 24.168C10.7449 24.2427 10.7823 24.3493 10.7823 24.488V27.608C10.7823 27.7467 10.7476 27.856 10.6783 27.936C10.6089 28.0107 10.5076 28.048 10.3743 28.048ZM10.3743 23.224C10.2143 23.224 10.0889 23.184 9.99825 23.104C9.91292 23.024 9.87025 22.912 9.87025 22.768C9.87025 22.6187 9.91292 22.5067 9.99825 22.432C10.0889 22.352 10.2143 22.312 10.3743 22.312C10.5343 22.312 10.6569 22.352 10.7423 22.432C10.8329 22.5067 10.8783 22.6187 10.8783 22.768C10.8783 22.912 10.8329 23.024 10.7423 23.104C10.6569 23.184 10.5343 23.224 10.3743 23.224ZM13.5836 28.072C13.2636 28.072 12.9942 28.016 12.7756 27.904C12.5569 27.792 12.3942 27.6267 12.2876 27.408C12.1809 27.1893 12.1276 26.9227 12.1276 26.608V24.72H11.6476C11.5409 24.72 11.4582 24.6933 11.3996 24.64C11.3409 24.5813 11.3116 24.504 11.3116 24.408C11.3116 24.3067 11.3409 24.2293 11.3996 24.176C11.4582 24.1227 11.5409 24.096 11.6476 24.096H12.1276V23.272C12.1276 23.1387 12.1622 23.0373 12.2316 22.968C12.3062 22.8987 12.4076 22.864 12.5356 22.864C12.6636 22.864 12.7622 22.8987 12.8316 22.968C12.9009 23.0373 12.9356 23.1387 12.9356 23.272V24.096H13.8716C13.9782 24.096 14.0609 24.1227 14.1196 24.176C14.1782 24.2293 14.2076 24.3067 14.2076 24.408C14.2076 24.504 14.1782 24.5813 14.1196 24.64C14.0609 24.6933 13.9782 24.72 13.8716 24.72H12.9356V26.544C12.9356 26.8267 12.9942 27.04 13.1116 27.184C13.2342 27.328 13.4316 27.4 13.7036 27.4C13.7996 27.4 13.8822 27.392 13.9516 27.376C14.0262 27.3547 14.0876 27.3413 14.1356 27.336C14.1942 27.336 14.2422 27.3573 14.2796 27.4C14.3169 27.4373 14.3356 27.512 14.3356 27.624C14.3356 27.704 14.3196 27.7787 14.2876 27.848C14.2609 27.9173 14.2102 27.9627 14.1356 27.984C14.0716 28.0053 13.9836 28.024 13.8716 28.04C13.7649 28.0613 13.6689 28.072 13.5836 28.072ZM16.0894 28.072C15.8174 28.072 15.5721 28.0187 15.3534 27.912C15.1401 27.8053 14.9721 27.6613 14.8494 27.48C14.7268 27.2987 14.6654 27.0933 14.6654 26.864C14.6654 26.576 14.7374 26.3493 14.8814 26.184C15.0308 26.0133 15.2734 25.8933 15.6094 25.824C15.9508 25.7493 16.4094 25.712 16.9854 25.712H17.3614V26.208H16.9934C16.6094 26.208 16.3054 26.2267 16.0814 26.264C15.8574 26.3013 15.6974 26.3653 15.6014 26.456C15.5108 26.5413 15.4654 26.6613 15.4654 26.816C15.4654 27.0187 15.5348 27.184 15.6734 27.312C15.8121 27.4347 16.0041 27.496 16.2494 27.496C16.4468 27.496 16.6201 27.4507 16.7694 27.36C16.9188 27.264 17.0361 27.136 17.1214 26.976C17.2121 26.816 17.2574 26.632 17.2574 26.424V25.504C17.2574 25.2 17.1934 24.9813 17.0654 24.848C16.9374 24.7147 16.7268 24.648 16.4334 24.648C16.2628 24.648 16.0841 24.6693 15.8974 24.712C15.7161 24.7547 15.5268 24.8267 15.3294 24.928C15.2388 24.9707 15.1614 24.984 15.0974 24.968C15.0334 24.952 14.9828 24.9173 14.9454 24.864C14.9081 24.8053 14.8868 24.744 14.8814 24.68C14.8814 24.6107 14.8974 24.544 14.9294 24.48C14.9668 24.416 15.0281 24.368 15.1134 24.336C15.3481 24.224 15.5801 24.144 15.8094 24.096C16.0388 24.048 16.2548 24.024 16.4574 24.024C16.8148 24.024 17.1081 24.08 17.3374 24.192C17.5721 24.304 17.7454 24.4747 17.8574 24.704C17.9694 24.9333 18.0254 25.2293 18.0254 25.592V27.648C18.0254 27.776 17.9934 27.8773 17.9294 27.952C17.8654 28.0213 17.7721 28.056 17.6494 28.056C17.5321 28.056 17.4388 28.0213 17.3694 27.952C17.3001 27.8773 17.2654 27.776 17.2654 27.648V27.128H17.3374C17.2948 27.3253 17.2148 27.496 17.0974 27.64C16.9854 27.7787 16.8441 27.8853 16.6734 27.96C16.5028 28.0347 16.3081 28.072 16.0894 28.072ZM19.5463 28.056C19.413 28.056 19.3116 28.0213 19.2423 27.952C19.173 27.8773 19.1383 27.776 19.1383 27.648V24.448C19.1383 24.3147 19.173 24.2133 19.2423 24.144C19.3116 24.0747 19.4076 24.04 19.5303 24.04C19.6583 24.04 19.7543 24.0747 19.8183 24.144C19.8876 24.2133 19.9223 24.3147 19.9223 24.448V25.032H19.8423C19.9276 24.712 20.085 24.4693 20.3143 24.304C20.5436 24.1387 20.837 24.0427 21.1943 24.016C21.2903 24.0107 21.365 24.0347 21.4183 24.088C21.477 24.1413 21.509 24.224 21.5143 24.336C21.525 24.448 21.501 24.5387 21.4423 24.608C21.3836 24.672 21.293 24.7093 21.1703 24.72L21.0183 24.736C20.6716 24.768 20.4076 24.8773 20.2263 25.064C20.045 25.2507 19.9543 25.5067 19.9543 25.832V27.648C19.9543 27.776 19.9196 27.8773 19.8503 27.952C19.7863 28.0213 19.685 28.056 19.5463 28.056Z" fill="#747488"/>
<defs>
<clipPath id="clip0_84048_882">
<rect width="16" height="16" fill="white" transform="translate(3)"/>
</clipPath>
</defs>
</svg>
