<svg width="24" height="35" viewBox="0 0 24 35" fill="none" xmlns="http://www.w3.org/2000/svg">
<path d="M15.75 8.75L19.25 12L15.75 15.25" stroke="#747488" stroke-width="1.5" stroke-linecap="round" stroke-linejoin="round"/>
<path d="M19 12H10.75" stroke="#747488" stroke-width="1.5" stroke-linecap="round" stroke-linejoin="round"/>
<path d="M15.25 4.75H6.75C5.64543 4.75 4.75 5.64543 4.75 6.75V17.25C4.75 18.3546 5.64543 19.25 6.75 19.25H15.25" stroke="#747488" stroke-width="1.5" stroke-linecap="round" stroke-linejoin="round"/>
<path d="M7.036 32.072C6.79067 32.072 6.55067 32.0533 6.316 32.016C6.08133 31.9787 5.86 31.9227 5.652 31.848C5.444 31.768 5.25733 31.672 5.092 31.56C5.012 31.5013 4.956 31.4347 4.924 31.36C4.89733 31.2853 4.88933 31.2133 4.9 31.144C4.916 31.0693 4.948 31.0053 4.996 30.952C5.044 30.8987 5.10267 30.8667 5.172 30.856C5.24133 30.84 5.31867 30.8613 5.404 30.92C5.644 31.0747 5.89733 31.1893 6.164 31.264C6.43067 31.3333 6.72133 31.368 7.036 31.368C7.48933 31.368 7.82267 31.288 8.036 31.128C8.25467 30.9627 8.364 30.7493 8.364 30.488C8.364 30.2747 8.28667 30.1067 8.132 29.984C7.97733 29.856 7.71867 29.7547 7.356 29.68L6.5 29.504C5.99333 29.3973 5.61467 29.2213 5.364 28.976C5.11867 28.7307 4.996 28.4 4.996 27.984C4.996 27.7333 5.04667 27.504 5.148 27.296C5.25467 27.088 5.40133 26.9093 5.588 26.76C5.77467 26.6053 5.99867 26.488 6.26 26.408C6.52133 26.328 6.80667 26.288 7.116 26.288C7.44667 26.288 7.756 26.3307 8.044 26.416C8.33733 26.5013 8.59867 26.632 8.828 26.808C8.89733 26.856 8.94267 26.9173 8.964 26.992C8.99067 27.0613 8.996 27.1307 8.98 27.2C8.96933 27.2693 8.94 27.328 8.892 27.376C8.844 27.424 8.78267 27.4533 8.708 27.464C8.63333 27.4693 8.55067 27.4427 8.46 27.384C8.252 27.2453 8.03867 27.1467 7.82 27.088C7.60667 27.024 7.36933 26.992 7.108 26.992C6.84667 26.992 6.61733 27.032 6.42 27.112C6.228 27.192 6.07867 27.304 5.972 27.448C5.87067 27.592 5.82 27.7627 5.82 27.96C5.82 28.184 5.892 28.3627 6.036 28.496C6.18 28.6293 6.42 28.7307 6.756 28.8L7.604 28.976C8.13733 29.088 8.53467 29.2613 8.796 29.496C9.05733 29.7307 9.188 30.0427 9.188 30.432C9.188 30.6827 9.13733 30.9093 9.036 31.112C8.93467 31.3093 8.79067 31.48 8.604 31.624C8.41733 31.768 8.19067 31.88 7.924 31.96C7.66267 32.0347 7.36667 32.072 7.036 32.072ZM11.2926 32.072C11.0206 32.072 10.7752 32.0187 10.5566 31.912C10.3432 31.8053 10.1752 31.6613 10.0526 31.48C9.9299 31.2987 9.86856 31.0933 9.86856 30.864C9.86856 30.576 9.94056 30.3493 10.0846 30.184C10.2339 30.0133 10.4766 29.8933 10.8126 29.824C11.1539 29.7493 11.6126 29.712 12.1886 29.712H12.5646V30.208H12.1966C11.8126 30.208 11.5086 30.2267 11.2846 30.264C11.0606 30.3013 10.9006 30.3653 10.8046 30.456C10.7139 30.5413 10.6686 30.6613 10.6686 30.816C10.6686 31.0187 10.7379 31.184 10.8766 31.312C11.0152 31.4347 11.2072 31.496 11.4526 31.496C11.6499 31.496 11.8232 31.4507 11.9726 31.36C12.1219 31.264 12.2392 31.136 12.3246 30.976C12.4152 30.816 12.4606 30.632 12.4606 30.424V29.504C12.4606 29.2 12.3966 28.9813 12.2686 28.848C12.1406 28.7147 11.9299 28.648 11.6366 28.648C11.4659 28.648 11.2872 28.6693 11.1006 28.712C10.9192 28.7547 10.7299 28.8267 10.5326 28.928C10.4419 28.9707 10.3646 28.984 10.3006 28.968C10.2366 28.952 10.1859 28.9173 10.1486 28.864C10.1112 28.8053 10.0899 28.744 10.0846 28.68C10.0846 28.6107 10.1006 28.544 10.1326 28.48C10.1699 28.416 10.2312 28.368 10.3166 28.336C10.5512 28.224 10.7832 28.144 11.0126 28.096C11.2419 28.048 11.4579 28.024 11.6606 28.024C12.0179 28.024 12.3112 28.08 12.5406 28.192C12.7752 28.304 12.9486 28.4747 13.0606 28.704C13.1726 28.9333 13.2286 29.2293 13.2286 29.592V31.648C13.2286 31.776 13.1966 31.8773 13.1326 31.952C13.0686 32.0213 12.9752 32.056 12.8526 32.056C12.7352 32.056 12.6419 32.0213 12.5726 31.952C12.5032 31.8773 12.4686 31.776 12.4686 31.648V31.128H12.5406C12.4979 31.3253 12.4179 31.496 12.3006 31.64C12.1886 31.7787 12.0472 31.8853 11.8766 31.96C11.7059 32.0347 11.5112 32.072 11.2926 32.072ZM14.7414 32.048C14.6134 32.048 14.5148 32.0107 14.4454 31.936C14.3761 31.856 14.3414 31.7467 14.3414 31.608V28.488C14.3414 28.3493 14.3761 28.2427 14.4454 28.168C14.5148 28.0933 14.6134 28.056 14.7414 28.056C14.8694 28.056 14.9681 28.0933 15.0374 28.168C15.1121 28.2427 15.1494 28.3493 15.1494 28.488V31.608C15.1494 31.7467 15.1148 31.856 15.0454 31.936C14.9761 32.0107 14.8748 32.048 14.7414 32.048ZM14.7414 27.224C14.5814 27.224 14.4561 27.184 14.3654 27.104C14.2801 27.024 14.2374 26.912 14.2374 26.768C14.2374 26.6187 14.2801 26.5067 14.3654 26.432C14.4561 26.352 14.5814 26.312 14.7414 26.312C14.9014 26.312 15.0241 26.352 15.1094 26.432C15.2001 26.5067 15.2454 26.6187 15.2454 26.768C15.2454 26.912 15.2001 27.024 15.1094 27.104C15.0241 27.184 14.9014 27.224 14.7414 27.224ZM16.6948 32.056C16.5614 32.056 16.4601 32.0213 16.3908 31.952C16.3214 31.8773 16.2868 31.776 16.2868 31.648V28.448C16.2868 28.3147 16.3214 28.2133 16.3908 28.144C16.4601 28.0747 16.5561 28.04 16.6788 28.04C16.8068 28.04 16.9028 28.0747 16.9668 28.144C17.0361 28.2133 17.0708 28.3147 17.0708 28.448V29.032H16.9908C17.0761 28.712 17.2334 28.4693 17.4628 28.304C17.6921 28.1387 17.9854 28.0427 18.3428 28.016C18.4388 28.0107 18.5134 28.0347 18.5668 28.088C18.6254 28.1413 18.6574 28.224 18.6628 28.336C18.6734 28.448 18.6494 28.5387 18.5908 28.608C18.5321 28.672 18.4414 28.7093 18.3188 28.72L18.1668 28.736C17.8201 28.768 17.5561 28.8773 17.3748 29.064C17.1934 29.2507 17.1028 29.5067 17.1028 29.832V31.648C17.1028 31.776 17.0681 31.8773 16.9988 31.952C16.9348 32.0213 16.8334 32.056 16.6948 32.056Z" fill="#747488"/>
</svg>
