<svg width="25" height="40" viewBox="0 0 23 32" fill="none" xmlns="http://www.w3.org/2000/svg">
<g clip-path="url(#clip0_84372_3204)">
<path d="M4.25 15.325L8.5 14.325L17.7929 5.03216C18.1834 4.64163 18.1834 4.00847 17.7929 3.61794L15.9571 1.78216C15.5666 1.39163 14.9334 1.39163 14.5429 1.78216L5.25 11.075L4.25 15.325Z" stroke="#747488" stroke-width="1.5" stroke-linecap="round" stroke-linejoin="round"/>
<path d="M18.75 15.3252H13.25" stroke="#747488" stroke-width="1.5" stroke-linecap="round" stroke-linejoin="round"/>
</g>
<path d="M1.604 28.0752C1.46 28.0752 1.348 28.0379 1.268 27.9632C1.19333 27.8832 1.156 27.7712 1.156 27.6272V22.8832C1.156 22.7392 1.19333 22.6299 1.268 22.5552C1.348 22.4752 1.46 22.4352 1.604 22.4352H4.524C4.636 22.4352 4.72133 22.4645 4.78 22.5232C4.83867 22.5765 4.868 22.6565 4.868 22.7632C4.868 22.8752 4.83867 22.9605 4.78 23.0192C4.72133 23.0779 4.636 23.1072 4.524 23.1072H1.956V24.8752H4.348C4.46533 24.8752 4.55067 24.9045 4.604 24.9632C4.66267 25.0219 4.692 25.1045 4.692 25.2112C4.692 25.3232 4.66267 25.4085 4.604 25.4672C4.55067 25.5205 4.46533 25.5472 4.348 25.5472H1.956V27.4032H4.524C4.636 27.4032 4.72133 27.4325 4.78 27.4912C4.83867 27.5499 4.868 27.6325 4.868 27.7392C4.868 27.8512 4.83867 27.9365 4.78 27.9952C4.72133 28.0485 4.636 28.0752 4.524 28.0752H1.604ZM7.23569 28.1472C6.89435 28.1472 6.59302 28.0672 6.33169 27.9072C6.07569 27.7419 5.87569 27.5072 5.73169 27.2032C5.58769 26.8939 5.51569 26.5339 5.51569 26.1232C5.51569 25.7019 5.58769 25.3419 5.73169 25.0432C5.87569 24.7445 6.07569 24.5125 6.33169 24.3472C6.59302 24.1819 6.89435 24.0992 7.23569 24.0992C7.57702 24.0992 7.87035 24.1845 8.11569 24.3552C8.36635 24.5205 8.53435 24.7445 8.61969 25.0272H8.53169V22.7872C8.53169 22.6539 8.56635 22.5525 8.63569 22.4832C8.70502 22.4139 8.80369 22.3792 8.93169 22.3792C9.05969 22.3792 9.15835 22.4139 9.22769 22.4832C9.30235 22.5525 9.33969 22.6539 9.33969 22.7872V27.7232C9.33969 27.8512 9.30502 27.9525 9.23569 28.0272C9.16635 28.0965 9.06769 28.1312 8.93969 28.1312C8.81169 28.1312 8.71302 28.0965 8.64369 28.0272C8.57435 27.9525 8.53969 27.8512 8.53969 27.7232V27.0192L8.62769 27.1952C8.54235 27.4832 8.37435 27.7152 8.12369 27.8912C7.87835 28.0619 7.58235 28.1472 7.23569 28.1472ZM7.44369 27.5232C7.66235 27.5232 7.85435 27.4699 8.01969 27.3632C8.18502 27.2565 8.31302 27.0992 8.40369 26.8912C8.49969 26.6832 8.54769 26.4272 8.54769 26.1232C8.54769 25.6645 8.44635 25.3179 8.24369 25.0832C8.04102 24.8485 7.77435 24.7312 7.44369 24.7312C7.21969 24.7312 7.02502 24.7845 6.85969 24.8912C6.69435 24.9925 6.56369 25.1472 6.46769 25.3552C6.37702 25.5632 6.33169 25.8192 6.33169 26.1232C6.33169 26.5765 6.43302 26.9232 6.63569 27.1632C6.83835 27.4032 7.10769 27.5232 7.44369 27.5232ZM10.8743 28.1232C10.7463 28.1232 10.6476 28.0859 10.5783 28.0112C10.5089 27.9312 10.4743 27.8219 10.4743 27.6832V24.5632C10.4743 24.4245 10.5089 24.3179 10.5783 24.2432C10.6476 24.1685 10.7463 24.1312 10.8743 24.1312C11.0023 24.1312 11.1009 24.1685 11.1703 24.2432C11.2449 24.3179 11.2823 24.4245 11.2823 24.5632V27.6832C11.2823 27.8219 11.2476 27.9312 11.1783 28.0112C11.1089 28.0859 11.0076 28.1232 10.8743 28.1232ZM10.8743 23.2992C10.7143 23.2992 10.5889 23.2592 10.4983 23.1792C10.4129 23.0992 10.3703 22.9872 10.3703 22.8432C10.3703 22.6939 10.4129 22.5819 10.4983 22.5072C10.5889 22.4272 10.7143 22.3872 10.8743 22.3872C11.0343 22.3872 11.1569 22.4272 11.2423 22.5072C11.3329 22.5819 11.3783 22.6939 11.3783 22.8432C11.3783 22.9872 11.3329 23.0992 11.2423 23.1792C11.1569 23.2592 11.0343 23.2992 10.8743 23.2992ZM14.0836 28.1472C13.7636 28.1472 13.4942 28.0912 13.2756 27.9792C13.0569 27.8672 12.8942 27.7019 12.7876 27.4832C12.6809 27.2645 12.6276 26.9979 12.6276 26.6832V24.7952H12.1476C12.0409 24.7952 11.9582 24.7685 11.8996 24.7152C11.8409 24.6565 11.8116 24.5792 11.8116 24.4832C11.8116 24.3819 11.8409 24.3045 11.8996 24.2512C11.9582 24.1979 12.0409 24.1712 12.1476 24.1712H12.6276V23.3472C12.6276 23.2139 12.6622 23.1125 12.7316 23.0432C12.8062 22.9739 12.9076 22.9392 13.0356 22.9392C13.1636 22.9392 13.2622 22.9739 13.3316 23.0432C13.4009 23.1125 13.4356 23.2139 13.4356 23.3472V24.1712H14.3716C14.4782 24.1712 14.5609 24.1979 14.6196 24.2512C14.6782 24.3045 14.7076 24.3819 14.7076 24.4832C14.7076 24.5792 14.6782 24.6565 14.6196 24.7152C14.5609 24.7685 14.4782 24.7952 14.3716 24.7952H13.4356V26.6192C13.4356 26.9019 13.4942 27.1152 13.6116 27.2592C13.7342 27.4032 13.9316 27.4752 14.2036 27.4752C14.2996 27.4752 14.3822 27.4672 14.4516 27.4512C14.5262 27.4299 14.5876 27.4165 14.6356 27.4112C14.6942 27.4112 14.7422 27.4325 14.7796 27.4752C14.8169 27.5125 14.8356 27.5872 14.8356 27.6992C14.8356 27.7792 14.8196 27.8539 14.7876 27.9232C14.7609 27.9925 14.7102 28.0379 14.6356 28.0592C14.5716 28.0805 14.4836 28.0992 14.3716 28.1152C14.2649 28.1365 14.1689 28.1472 14.0836 28.1472ZM16.5894 28.1472C16.3174 28.1472 16.0721 28.0939 15.8534 27.9872C15.6401 27.8805 15.4721 27.7365 15.3494 27.5552C15.2268 27.3739 15.1654 27.1685 15.1654 26.9392C15.1654 26.6512 15.2374 26.4245 15.3814 26.2592C15.5308 26.0885 15.7734 25.9685 16.1094 25.8992C16.4508 25.8245 16.9094 25.7872 17.4854 25.7872H17.8614V26.2832H17.4934C17.1094 26.2832 16.8054 26.3019 16.5814 26.3392C16.3574 26.3765 16.1974 26.4405 16.1014 26.5312C16.0108 26.6165 15.9654 26.7365 15.9654 26.8912C15.9654 27.0939 16.0348 27.2592 16.1734 27.3872C16.3121 27.5099 16.5041 27.5712 16.7494 27.5712C16.9468 27.5712 17.1201 27.5259 17.2694 27.4352C17.4188 27.3392 17.5361 27.2112 17.6214 27.0512C17.7121 26.8912 17.7574 26.7072 17.7574 26.4992V25.5792C17.7574 25.2752 17.6934 25.0565 17.5654 24.9232C17.4374 24.7899 17.2268 24.7232 16.9334 24.7232C16.7628 24.7232 16.5841 24.7445 16.3974 24.7872C16.2161 24.8299 16.0268 24.9019 15.8294 25.0032C15.7388 25.0459 15.6614 25.0592 15.5974 25.0432C15.5334 25.0272 15.4828 24.9925 15.4454 24.9392C15.4081 24.8805 15.3868 24.8192 15.3814 24.7552C15.3814 24.6859 15.3974 24.6192 15.4294 24.5552C15.4668 24.4912 15.5281 24.4432 15.6134 24.4112C15.8481 24.2992 16.0801 24.2192 16.3094 24.1712C16.5388 24.1232 16.7548 24.0992 16.9574 24.0992C17.3148 24.0992 17.6081 24.1552 17.8374 24.2672C18.0721 24.3792 18.2454 24.5499 18.3574 24.7792C18.4694 25.0085 18.5254 25.3045 18.5254 25.6672V27.7232C18.5254 27.8512 18.4934 27.9525 18.4294 28.0272C18.3654 28.0965 18.2721 28.1312 18.1494 28.1312C18.0321 28.1312 17.9388 28.0965 17.8694 28.0272C17.8001 27.9525 17.7654 27.8512 17.7654 27.7232V27.2032H17.8374C17.7948 27.4005 17.7148 27.5712 17.5974 27.7152C17.4854 27.8539 17.3441 27.9605 17.1734 28.0352C17.0028 28.1099 16.8081 28.1472 16.5894 28.1472ZM20.0463 28.1312C19.913 28.1312 19.8116 28.0965 19.7423 28.0272C19.673 27.9525 19.6383 27.8512 19.6383 27.7232V24.5232C19.6383 24.3899 19.673 24.2885 19.7423 24.2192C19.8116 24.1499 19.9076 24.1152 20.0303 24.1152C20.1583 24.1152 20.2543 24.1499 20.3183 24.2192C20.3876 24.2885 20.4223 24.3899 20.4223 24.5232V25.1072H20.3423C20.4276 24.7872 20.585 24.5445 20.8143 24.3792C21.0436 24.2139 21.337 24.1179 21.6943 24.0912C21.7903 24.0859 21.865 24.1099 21.9183 24.1632C21.977 24.2165 22.009 24.2992 22.0143 24.4112C22.025 24.5232 22.001 24.6139 21.9423 24.6832C21.8836 24.7472 21.793 24.7845 21.6703 24.7952L21.5183 24.8112C21.1716 24.8432 20.9076 24.9525 20.7263 25.1392C20.545 25.3259 20.4543 25.5819 20.4543 25.9072V27.7232C20.4543 27.8512 20.4196 27.9525 20.3503 28.0272C20.2863 28.0965 20.185 28.1312 20.0463 28.1312Z" fill="#747488"/>
<defs>
<clipPath id="clip0_84372_3204">
<rect width="16" height="16" fill="white" transform="translate(3.5 0.0751953)"/>
</clipPath>
</defs>
</svg>
